<?xml version="1.0" encoding="UTF-8" standalone="no"?>
<svg
   version="1.1"
   viewBox="0 0 1024 1536"
   xml:space="preserve"
   id="svg23"
   sodipodi:docname="Mantarraia Logo.svg"
   inkscape:version="1.4.3 (0d15f75042, 2025-12-25)"
   xmlns:inkscape="http://www.inkscape.org/namespaces/inkscape"
   xmlns:sodipodi="http://sodipodi.sourceforge.net/DTD/sodipodi-0.dtd"
   xmlns="http://www.w3.org/2000/svg"
   xmlns:svg="http://www.w3.org/2000/svg"><defs
     id="defs23" /><sodipodi:namedview
     id="namedview23"
     pagecolor="#ffffff"
     bordercolor="#000000"
     borderopacity="0.25"
     inkscape:showpageshadow="2"
     inkscape:pageopacity="0.0"
     inkscape:pagecheckerboard="0"
     inkscape:deskcolor="#d1d1d1"
     inkscape:zoom="0.44021541"
     inkscape:cx="295.30997"
     inkscape:cy="796.20112"
     inkscape:window-width="1600"
     inkscape:window-height="831"
     inkscape:window-x="0"
     inkscape:window-y="0"
     inkscape:window-maximized="1"
     inkscape:current-layer="svg23" /><g
     id="g2"
     inkscape:label="Mantarraia"><text
       x="365.42776"
       y="929.53735"
       font-family="Jost"
       font-size="74.0799px"
       font-style="italic"
       font-weight="500"
       stroke-linejoin="round"
       stroke-width="5.735"
       style="fill:#113b79;paint-order:stroke markers fill"
       xml:space="preserve"
       id="text1"><tspan
         x="365.42776"
         y="929.53735"
         fill="#113b79"
         stroke-width="5.735"
         id="tspan1">Sistemas</tspan></text><path
       d="m 633.43353,891.53216 c -0.0245,0.0636 -0.0157,0.13203 0.0181,0.22814 0.0466,0.13185 0.15995,0.28131 0.25059,0.33394 0.0916,0.0507 1.44049,0.46514 2.99802,0.91875 3.38209,0.98479 5.10225,1.52862 9.44978,2.98835 1.80293,0.60568 4.00695,1.32187 4.89783,1.59187 1.4683,0.44521 1.90261,0.63237 1.74156,0.75151 -0.12031,0.0891 -2.82433,-0.12712 -4.42599,-0.3527 -0.92801,-0.12462 -1.68763,-0.22599 -1.69026,-0.20844 0,0.0175 0.16333,0.44352 0.36827,0.9494 1.77076,4.36747 2.40203,9.29882 1.74633,13.64075 -0.64735,4.29361 -2.21223,7.74367 -6.19376,13.66348 -3.23806,4.81494 -4.5685,7.29193 -5.60983,10.44593 -1.27874,3.87318 -1.42965,7.8859 -0.30293,8.05493 0.34612,0.0507 0.58918,-0.2725 1.10819,-1.47727 1.56884,-3.64223 4.99325,-6.7341 11.82563,-10.67734 7.85208,-4.53161 9.37925,-5.48037 12.32225,-7.65332 5.20251,-3.83301 8.6145,-7.49477 11.51845,-12.32808 0.20529,-0.34198 0.71311,-0.98922 1.12818,-1.43874 0.41507,-0.44953 0.73607,-0.83674 0.71328,-0.86081 -0.0222,-0.0227 -0.43355,-0.21159 -0.91292,-0.41671 -1.75251,-0.75053 -5.00409,-2.74867 -5.3153,-3.26662 -0.11331,-0.18857 -0.0542,-0.18909 0.74225,0 0.62946,0.1498 1.36693,0.46252 2.70629,1.14986 2.18799,1.12259 3.17505,1.49977 4.40664,1.6835 1.737,0.26032 2.34257,0.0321 4.47599,-1.67994 0.82631,-0.66269 1.9873,-1.53224 2.57952,-1.93292 0.59221,-0.40097 1.59781,-1.07659 2.23345,-1.50332 1.22476,-0.82164 2.4314,-2.03172 2.87521,-2.8818 0.13517,-0.25921 0.30532,-0.85079 0.37777,-1.31494 0.12182,-0.78661 0.10772,-0.91846 -0.22523,-1.95273 -0.32851,-1.02087 -0.455,-1.23642 -1.58668,-2.70466 -1.61302,-2.09245 -3.43292,-4.53924 -4.26919,-5.74022 -0.92545,-1.3287 -1.49464,-1.71428 -2.9223,-1.98007 -1.36723,-0.25508 -2.41269,-0.20524 -4.80487,0.22662 -2.36676,0.4265 -4.06343,0.44632 -3.72226,0.0431 0.28538,-0.33726 4.52711,-1.36233 6.57731,-1.5896 l 0.48636,-0.0548 -0.42807,-0.82222 c -0.2489,-0.47803 -0.69481,-1.75898 -1.06634,-3.06267 -1.52414,-5.34712 -3.35114,-8.99163 -7.00048,-13.9625 -2.18065,-2.97028 -4.21213,-5.32462 -8.189,-9.49 -3.20664,-3.35877 -4.36198,-4.68205 -5.81984,-6.66474 -2.42697,-3.30171 -3.67307,-6.16521 -3.83109,-8.80744 -0.0443,-0.73537 -0.19323,-1.19078 -0.4539,-1.38494 -0.72109,-0.53725 -1.53165,1.05485 -1.95046,3.8287 -0.28567,1.89724 -0.3263,3.74418 -0.12724,5.85103 0.28066,2.97028 0.72715,4.95531 2.15884,9.59609 1.70769,5.53597 2.22407,8.26068 2.2162,11.69448 0,1.2746 -0.36285,4.11431 -0.66286,5.22967 -1.11116,4.13104 -3.1536,8.07358 -5.72863,11.05797 l -0.33941,0.39368 1.68484,0.25268 c 1.763,0.26463 4.13774,0.80176 4.26085,0.96352 0.0385,0.0536 -0.6888,0.0941 -1.6188,0.0903 -0.93005,0 -2.80194,0.028 -4.15995,0.0662 -7.92844,0.23118 -9.10879,0.24388 -12.40561,0.17155 -1.32659,-0.0291 -1.7268,0 -1.92423,0.14764 -0.0993,0.0737 -0.15697,0.13185 -0.18209,0.19504 z m 27.63006,11.92356 c 0.0128,-0.0864 0.31919,-0.60137 0.68075,-1.14613 0.66636,-1.00409 0.79332,-1.08942 1.24418,-0.83353 0.20681,0.11821 0.2338,0.0536 -0.50187,1.21071 -0.61133,0.96264 -0.62864,0.97879 -1.03387,0.95244 -0.29692,-0.0204 -0.4051,-0.075 -0.3889,-0.18297 z m 2.33027,-14.96449 c 0.0222,-0.20954 0.16816,-0.22044 0.45588,-0.14339 0.28037,0.075 0.33696,0.18793 0.57297,1.13885 0.14415,0.58038 0.25432,1.11652 0.24523,1.19183 -0.0187,0.1494 -0.52216,0.23636 -0.66595,0.11442 -0.049,-0.0431 -0.22902,-0.58697 -0.39928,-1.21188 -0.15441,-0.56674 -0.22914,-0.90528 -0.20885,-1.08994 z m -0.65342,15.82716 c 0.021,-0.13849 1.27,-1.76055 1.51388,-1.96445 0.11168,-0.0979 0.30485,-0.14216 0.42615,-0.1055 0.36011,0.10807 0.27366,0.37509 -0.44352,1.35976 -0.67289,0.92435 -0.68233,0.93157 -1.09426,0.87066 -0.22884,-0.0344 -0.40971,-0.10678 -0.40161,-0.16047 z m 2.51668,-16.21186 c 0,-0.0245 0.008,-0.0385 0.0186,-0.0472 0.062,-0.046 0.25263,-0.046 0.42417,3.5e-4 0.27093,0.0738 0.36028,0.22383 0.6832,1.1554 0.2043,0.58942 0.36372,1.13559 0.35428,1.21369 -0.0216,0.16939 -0.28043,0.24301 -0.54086,0.15045 -0.21882,-0.0763 -0.9771,-2.12084 -0.93921,-2.4736 z m -0.64462,16.92532 c 0.0286,-0.20693 1.23905,-1.73835 1.51464,-1.90506 0.10072,-0.0611 0.29109,-0.0789 0.42306,-0.042 0.13231,0.0408 0.24586,0.12584 0.25268,0.18804 0.0175,0.15959 -1.19533,1.70832 -1.44323,1.8439 -0.2359,0.12766 -0.6786,0.0852 -0.74651,-0.0738 -0.006,-0.0151 -0.006,-0.0151 0,-0.0151 z m 2.57409,-17.02966 c -0.006,-0.0151 0,-0.014 0,-0.014 0.10405,-0.0763 0.6223,0.0152 0.7535,0.13354 0.0606,0.056 0.27956,0.54209 0.48677,1.0833 0.20722,0.54086 0.37241,1.01189 0.36728,1.04622 -0.0157,0.10428 -0.32974,0.13984 -0.57881,0.0635 -0.16921,-0.0507 -0.35917,-0.38517 -0.66915,-1.17295 -0.22319,-0.56738 -0.37923,-1.05928 -0.3646,-1.14345 z m 2.09951,0.22342 c -0.006,-0.0151 0,-0.014 0.006,-0.0151 0.12106,-0.14386 0.67994,0.0151 0.82245,0.23508 0.0782,0.11955 0.25729,0.50501 0.3973,0.85445 0.14001,0.34968 0.24458,0.70256 0.2324,0.78399 -0.0373,0.24784 -0.51866,0.22948 -0.70821,-0.0268 -0.23846,-0.32233 -0.78422,-1.66916 -0.74913,-1.83458 z m -2.52157,17.13458 c 0.0151,-0.1294 0.17142,-0.33901 0.56103,-0.79757 0.57146,-0.67283 0.69503,-0.76451 0.97523,-0.72115 0.46619,0.0699 0.40009,0.38535 -0.2289,1.09234 -0.55649,0.62491 -1.01942,0.82647 -1.26575,0.55077 -0.0309,-0.0356 -0.046,-0.0725 -0.0408,-0.12206 z m 8.60809,0.88762 c 0.008,-0.0291 0.0251,-0.0472 0.0449,-0.0472 0.0466,0.0128 0.17947,-0.16356 0.295,-0.37923 0.48321,-0.90033 1.34577,-1.58027 2.7046,-2.13127 0.82274,-0.33376 1.81307,-0.43629 3.23153,-0.33516 0.5028,0.0367 0.85923,0.10422 0.85037,0.16338 -0.008,0.056 -0.21374,0.20984 -0.45197,0.34769 -0.2947,0.16123 -0.60008,0.48928 -0.92504,0.9887 -0.55025,0.84705 -1.26096,1.48182 -1.89555,1.69405 -0.98001,0.32822 -3.7682,0.19637 -3.8519,-0.18181 -0.0117,-0.0495 -0.0105,-0.0916 0,-0.11955 z m 2.56791,-16.40363 c 0.0752,-0.28824 0.63051,-0.26714 1.81943,0.0623 1.97733,0.5496 2.63477,1.14106 3.13005,2.81686 0.19451,0.6582 0.39514,1.0777 0.63202,1.32158 0.19101,0.19661 0.34,0.40453 0.33143,0.46177 -0.0239,0.16023 -2.05649,-0.33015 -2.75467,-0.66292 -1.63751,-0.78369 -3.21031,-2.7394 -3.16712,-3.93869 0,-0.0227 0.006,-0.042 0.009,-0.061 z m 1.36606,1.53462 0.40201,0.42895 c 0.79256,0.84577 2.10848,1.53451 2.49051,1.30357 0.2553,-0.15411 0.26148,-0.31423 0.0321,-0.79593 -0.33336,-0.70028 -0.8502,-0.90301 -2.36542,-0.92726 z m -1.93076,13.80512 c -0.006,0.0332 0.0245,0.0598 0.0773,0.089 0.42533,0.23082 1.44381,0.44748 1.87317,0.39776 0.4304,-0.0495 1.01585,-0.40971 1.19171,-0.73333 0.13552,-0.24889 0.13354,-0.29238 -0.0233,-0.50332 -0.18506,-0.25012 -0.17923,-0.24913 -1.07064,-0.11448 -0.40785,0.0623 -1.0629,0.27722 -1.45612,0.47814 -0.41624,0.21165 -0.58288,0.31371 -0.59221,0.38611 z"
       stop-color="#000000"
       stroke-width="0.19153"
       style="font-variation-settings:normal;fill:#113b79;-inkscape-stroke:none"
       id="path1" /><text
       transform="scale(0.94678016,1.0562114)"
       x="461.01215"
       y="822.18414"
       font-family="Jost"
       font-size="117.637px"
       font-style="italic"
       font-weight="500"
       stroke-linejoin="round"
       stroke-width="5.73494"
       text-align="center"
       text-anchor="middle"
       style="fill:#113b79;fill-opacity:1;paint-order:stroke markers fill"
       xml:space="preserve"
       id="text11-6"><tspan
         x="461.01215"
         y="822.18414"
         stroke-width="5.73494"
         id="tspan11-7"
         style="fill:#113b79;fill-opacity:1">Mantarraia</tspan></text></g><g
     id="g13"
     inkscape:label="Mantarraia_favicon"><g
       id="g10"
       inkscape:export-filename="Estudos/RaiaAgenda/static/img/RaiaAgenda_favicon.png"
       inkscape:export-xdpi="96"
       inkscape:export-ydpi="96"
       transform="translate(-30.650298,-44.034752)"><path
         d="m 462.83,437.67 c -76.992,0 -139.52,62.523 -139.52,139.52 0,76.992 62.523,139.52 139.52,139.52 76.992,0 139.51,-62.523 139.51,-139.52 0,-76.992 -62.521,-139.52 -139.51,-139.52 z"
         fill="#ffffff"
         stroke-width="0.98013"
         id="path8" /><path
         d="m 462.83,434.84 c -78.553,0 -142.34,63.791 -142.34,142.34 0,78.553 63.791,142.34 142.34,142.34 78.553,0 142.34,-63.791 142.34,-142.34 1e-4,-78.553 -63.789,-142.34 -142.34,-142.34 z m 0,10.305 c 72.984,0 132.04,59.055 132.04,132.04 0,72.984 -59.053,132.04 -132.04,132.04 -72.984,0 -132.04,-59.055 -132.04,-132.04 0,-72.984 59.055,-132.04 132.04,-132.04 z"
         fill="#113b79"
         id="path9"
         inkscape:export-filename="Estudos/RaiaAgenda/static/img/RaiaAgenda_favicon.png"
         inkscape:export-xdpi="96"
         inkscape:export-ydpi="96" /><g
         fill="#113b79"
         id="g9" /></g><g
       id="g11"
       transform="matrix(0.4765973,0,0,0.4765973,221.9437,121.71982)"
       style="stroke-width:2.09821"><g
         id="g12"
         transform="translate(-7.7426965,-24.649907)"><text
           x="376.77927"
           y="1052.0872"
           font-family="Jost"
           font-size="177.281px"
           font-style="italic"
           font-weight="500"
           stroke-linejoin="round"
           stroke-width="12.0332"
           style="fill:#113b79;paint-order:stroke markers fill"
           xml:space="preserve"
           id="text10"><tspan
             x="376.77927"
             y="1052.0872"
             fill="#113b79"
             stroke-width="12.0332"
             id="tspan10">S</tspan></text><path
           d="m 433.60354,904.89904 c -0.0993,0.25771 -0.0637,0.535 0.0733,0.92445 0.18883,0.53427 0.64813,1.1399 1.01542,1.35316 0.37117,0.20545 5.83703,1.88481 12.14831,3.72289 13.70462,3.99048 20.6749,6.19414 38.29159,12.10913 7.30568,2.45428 16.23662,5.35636 19.84656,6.45043 5.94972,1.80405 7.7096,2.56244 7.057,3.04521 -0.48751,0.36104 -11.44451,-0.51511 -17.93461,-1.42918 -3.7604,-0.50498 -6.83847,-0.91574 -6.84913,-0.84463 0,0.071 0.66184,1.7972 1.49227,3.84708 7.17532,17.69749 9.7333,37.67988 7.07633,55.27387 -2.62314,17.39815 -8.9642,31.37825 -25.09782,55.36595 -13.12099,19.5107 -18.51208,29.5478 -22.73166,42.3281 -5.18161,15.6946 -5.79311,31.9546 -1.22751,32.6395 1.40252,0.2055 2.38742,-1.1042 4.49051,-5.986 6.35712,-14.7587 20.23321,-27.2874 47.9188,-43.2658 31.81751,-18.3626 38.00578,-22.2071 49.93115,-31.0122 21.08116,-15.5318 34.90694,-30.3696 46.67407,-49.95475 0.83186,-1.38574 2.8896,-4.00844 4.57151,-5.82994 1.68191,-1.82154 2.98265,-3.39057 2.89029,-3.4881 -0.0899,-0.0919 -1.75679,-0.85739 -3.69925,-1.68855 -7.10137,-3.04124 -20.27714,-11.13793 -21.5382,-13.23672 -0.45914,-0.76411 -0.21962,-0.76621 3.00768,0 2.55065,0.607 5.53895,1.87419 10.9662,4.65936 8.86598,4.54887 12.86566,6.07724 17.8562,6.82173 7.03852,1.05484 9.49236,0.13008 18.13722,-6.8073 3.3483,-2.6853 8.05277,-6.20881 10.45251,-7.83241 2.3997,-1.62479 6.47451,-4.36247 9.05019,-6.09163 4.96286,-3.32938 9.85231,-8.23276 11.65068,-11.67737 0.54772,-1.05036 1.23719,-3.44751 1.53076,-5.32829 0.49363,-3.18743 0.4365,-3.72171 -0.91265,-7.9127 -1.33116,-4.13667 -1.84371,-5.0101 -6.42941,-10.95958 -6.53614,-8.47885 -13.91058,-18.39352 -17.29924,-23.26003 -3.75003,-5.38404 -6.05645,-6.94645 -11.84149,-8.02346 -5.54017,-1.03361 -9.7765,-0.83166 -19.46989,0.91829 -9.59038,1.72823 -16.46547,1.80854 -15.08302,0.17464 1.1564,-1.36661 18.34437,-5.52031 26.65201,-6.44123 l 1.97079,-0.22207 -1.73459,-3.33172 c -1.00856,-1.93704 -2.81544,-7.12759 -4.32093,-12.41029 -6.17599,-21.66713 -13.57919,-36.4351 -28.36674,-56.57763 -8.83624,-12.03592 -17.06803,-21.57597 -33.18275,-38.45456 -12.99368,-13.61012 -17.67524,-18.9722 -23.58266,-27.00628 -9.83436,-13.37891 -14.8837,-24.98213 -15.52401,-35.68876 -0.17951,-2.97979 -0.78299,-4.82517 -1.83926,-5.61193 -2.92194,-2.17699 -6.20642,4.27438 -7.90348,15.51433 -1.15756,7.68783 -1.3222,15.17184 -0.51559,23.70904 1.13726,12.03591 2.94649,20.07947 8.74786,38.88445 6.91975,22.43237 9.01219,33.47321 8.9803,47.38735 0,5.16483 -1.47031,16.67165 -2.68598,21.19122 -4.50255,16.73944 -12.77875,32.71506 -23.21307,44.80816 l -1.37532,1.59523 6.82715,1.02389 c 7.14389,1.07232 16.7666,3.24883 17.26545,3.9043 0.15601,0.21718 -2.79109,0.3813 -6.55955,0.36589 -3.76867,0 -11.35379,0.11352 -16.85659,0.26826 -32.12695,0.93677 -36.90986,0.98822 -50.26895,0.69514 -5.37549,-0.11792 -6.99719,0 -7.7972,0.59825 -0.40237,0.29864 -0.63606,0.53427 -0.73784,0.79032 z m 111.96015,48.31563 c 0.0519,-0.35012 1.29338,-2.43683 2.75847,-4.64426 2.70016,-4.06868 3.21462,-4.41445 5.04155,-3.37756 0.83803,0.479 0.94739,0.2172 -2.03363,4.90593 -2.47717,3.90074 -2.54732,3.96618 -4.18935,3.85941 -1.20316,-0.0826 -1.64152,-0.30392 -1.57588,-0.74143 z m 9.44251,-60.63782 c 0.0899,-0.84908 0.6814,-0.89325 1.84728,-0.58103 1.13609,0.30391 1.36539,0.76151 2.32174,4.61474 0.58411,2.35177 1.03053,4.52427 0.9937,4.82944 -0.0758,0.60538 -2.11585,0.95775 -2.69851,0.46364 -0.19855,-0.17465 -0.92801,-2.37847 -1.61792,-4.91068 -0.6257,-2.2965 -0.92851,-3.6683 -0.84629,-4.41656 z m -2.64773,64.13345 c 0.0851,-0.56118 5.14618,-7.13395 6.13442,-7.96018 0.45253,-0.3967 1.23528,-0.57604 1.7268,-0.4275 1.4592,0.43792 1.1089,1.51991 -1.7972,5.5099 -2.72662,3.74558 -2.76487,3.77483 -4.43406,3.52803 -0.92729,-0.1394 -1.66019,-0.43269 -1.62736,-0.65025 z m 10.19788,-65.6923 c 0,-0.0993 0.0324,-0.15601 0.0753,-0.19126 0.25123,-0.18639 1.02368,-0.18639 1.71878,10e-4 1.09784,0.29905 1.4599,0.90698 2.76841,4.68181 0.82784,2.38841 1.47383,4.60154 1.43558,4.91801 -0.0876,0.68639 -1.13633,0.98471 -2.19164,0.60964 -0.88668,-0.30917 -3.95931,-8.59388 -3.80578,-10.0233 z m -2.61209,68.58332 c 0.11587,-0.83851 5.02078,-7.044 6.13751,-7.71952 0.40812,-0.24758 1.17952,-0.31971 1.71428,-0.17019 0.53613,0.16532 0.99625,0.50992 1.02389,0.76196 0.071,0.64668 -4.84362,6.92231 -5.84814,7.47169 -0.95589,0.51729 -2.74976,0.34524 -3.02494,-0.29904 -0.0243,-0.0612 -0.0243,-0.0612 0,-0.0612 z m 10.43052,-69.00612 c -0.0243,-0.0612 0,-0.0567 0,-0.0567 0.42161,-0.30917 2.52162,0.0616 3.05326,0.54113 0.24556,0.22691 1.13281,2.19661 1.97245,4.38965 0.83967,2.19163 1.50904,4.10029 1.48826,4.2394 -0.0636,0.42256 -1.33614,0.56665 -2.3454,0.25731 -0.68566,-0.20543 -1.4554,-1.56075 -2.71148,-4.75293 -0.90439,-2.29909 -1.53668,-4.29231 -1.47739,-4.63338 z m 8.50744,0.90533 c -0.0243,-0.0612 0,-0.0567 0.0243,-0.0612 0.49056,-0.58294 2.7552,0.0612 3.33266,0.95257 0.31689,0.48443 1.04257,2.04636 1.60991,3.46233 0.56733,1.41694 0.99106,2.84685 0.94171,3.17681 -0.15114,1.00429 -2.10166,0.92988 -2.86975,-0.10856 -0.96626,-1.30612 -3.17775,-6.76364 -3.03555,-7.43393 z m -10.21769,69.43126 c 0.0612,-0.52434 0.69462,-1.37371 2.27336,-3.23185 2.31563,-2.72637 2.81635,-3.09788 3.95175,-2.92217 1.88905,0.28324 1.62121,1.56148 -0.92753,4.42628 -2.25496,2.53221 -4.13081,3.34895 -5.12897,2.23178 -0.1252,-0.14426 -0.18639,-0.29377 -0.16532,-0.49459 z m 34.88097,3.59674 c 0.0324,-0.11791 0.10172,-0.19126 0.18194,-0.19126 0.18882,0.0519 0.72723,-0.66276 1.19537,-1.53668 1.95802,-3.64824 5.45321,-6.40344 10.95935,-8.63615 3.33384,-1.35244 7.34676,-1.7679 13.09452,-1.35811 2.03741,0.14872 3.4817,0.42232 3.4458,0.66204 -0.0324,0.22691 -0.86609,0.85029 -1.83143,1.40887 -1.19417,0.65332 -2.4316,1.98262 -3.74837,4.00633 -2.22967,3.43234 -5.10956,6.0045 -7.68099,6.86448 -3.9711,1.32999 -15.26917,0.79571 -15.60833,-0.73672 -0.0474,-0.20058 -0.0426,-0.37116 0,-0.48442 z m 10.40546,-66.46938 c 0.30472,-1.16798 2.55489,-1.08248 7.37253,0.25245 8.01237,2.22704 10.67639,4.62371 12.68333,11.41424 0.78817,2.66709 1.60114,4.36696 2.56102,5.35518 0.77399,0.7967 1.37771,1.63922 1.34299,1.87116 -0.0969,0.64927 -8.33314,-1.33782 -11.16224,-2.68623 -6.63537,-3.1756 -13.00854,-11.10036 -12.83353,-15.96002 0,-0.0919 0.0243,-0.17019 0.0364,-0.24718 z m 5.53543,6.21846 1.62899,1.73816 c 3.21154,3.42714 8.5438,6.218 10.09184,5.28221 1.03449,-0.62447 1.05953,-1.2733 0.13006,-3.2252 -1.35081,-2.83762 -3.44511,-3.6591 -9.58495,-3.75736 z m -7.82366,55.93992 c -0.0243,0.13453 0.0992,0.24231 0.31323,0.36064 1.72349,0.9353 5.85049,1.81323 7.59029,1.61177 1.74404,-0.20059 4.11635,-1.6602 4.82896,-2.97155 0.54913,-1.00853 0.54112,-1.18475 -0.0944,-2.0395 -0.74989,-1.01352 -0.72627,-1.00951 -4.33836,-0.46389 -1.65265,0.25244 -4.30699,1.12333 -5.90036,1.93747 -1.68666,0.85764 -2.36189,1.27119 -2.39971,1.56456 z"
           stop-color="#000000"
           stroke-width="0.401869"
           style="font-variation-settings:normal;fill:#113b79;-inkscape-stroke:none"
           id="path10" /><text
           transform="scale(0.94678017,1.0562114)"
           x="404.27792"
           y="835.50568"
           font-family="Jost"
           font-size="289.618px"
           font-style="italic"
           font-weight="500"
           stroke-linejoin="round"
           stroke-width="12.0331"
           text-align="center"
           text-anchor="middle"
           style="fill:#113b79;fill-opacity:1;paint-order:stroke markers fill"
           xml:space="preserve"
           id="text11"><tspan
             x="404.27792"
             y="835.50568"
             stroke-width="12.0331"
             id="tspan11"
             style="fill:#113b79;fill-opacity:1">M</tspan></text></g></g></g><g
     id="g20"
     transform="translate(-840.49761)"
     style="fill:#ffffff"
     inkscape:label="Mantarraia_Branca"><text
       x="365.42776"
       y="929.53735"
       font-family="Jost"
       font-size="74.0799px"
       font-style="italic"
       font-weight="500"
       stroke-linejoin="round"
       stroke-width="5.735"
       style="fill:#ffffff;paint-order:stroke markers fill"
       xml:space="preserve"
       id="text19"><tspan
         x="365.42776"
         y="929.53735"
         fill="#113b79"
         stroke-width="5.735"
         id="tspan19"
         style="fill:#ffffff">Sistemas</tspan></text><path
       d="m 633.43353,891.53216 c -0.0245,0.0636 -0.0157,0.13203 0.0181,0.22814 0.0466,0.13185 0.15995,0.28131 0.25059,0.33394 0.0916,0.0507 1.44049,0.46514 2.99802,0.91875 3.38209,0.98479 5.10225,1.52862 9.44978,2.98835 1.80293,0.60568 4.00695,1.32187 4.89783,1.59187 1.4683,0.44521 1.90261,0.63237 1.74156,0.75151 -0.12031,0.0891 -2.82433,-0.12712 -4.42599,-0.3527 -0.92801,-0.12462 -1.68763,-0.22599 -1.69026,-0.20844 0,0.0175 0.16333,0.44352 0.36827,0.9494 1.77076,4.36747 2.40203,9.29882 1.74633,13.64075 -0.64735,4.29361 -2.21223,7.74367 -6.19376,13.66348 -3.23806,4.81494 -4.5685,7.29193 -5.60983,10.44593 -1.27874,3.87318 -1.42965,7.8859 -0.30293,8.05493 0.34612,0.0507 0.58918,-0.2725 1.10819,-1.47727 1.56884,-3.64223 4.99325,-6.7341 11.82563,-10.67734 7.85208,-4.53161 9.37925,-5.48037 12.32225,-7.65332 5.20251,-3.83301 8.6145,-7.49477 11.51845,-12.32808 0.20529,-0.34198 0.71311,-0.98922 1.12818,-1.43874 0.41507,-0.44953 0.73607,-0.83674 0.71328,-0.86081 -0.0222,-0.0227 -0.43355,-0.21159 -0.91292,-0.41671 -1.75251,-0.75053 -5.00409,-2.74867 -5.3153,-3.26662 -0.11331,-0.18857 -0.0542,-0.18909 0.74225,0 0.62946,0.1498 1.36693,0.46252 2.70629,1.14986 2.18799,1.12259 3.17505,1.49977 4.40664,1.6835 1.737,0.26032 2.34257,0.0321 4.47599,-1.67994 0.82631,-0.66269 1.9873,-1.53224 2.57952,-1.93292 0.59221,-0.40097 1.59781,-1.07659 2.23345,-1.50332 1.22476,-0.82164 2.4314,-2.03172 2.87521,-2.8818 0.13517,-0.25921 0.30532,-0.85079 0.37777,-1.31494 0.12182,-0.78661 0.10772,-0.91846 -0.22523,-1.95273 -0.32851,-1.02087 -0.455,-1.23642 -1.58668,-2.70466 -1.61302,-2.09245 -3.43292,-4.53924 -4.26919,-5.74022 -0.92545,-1.3287 -1.49464,-1.71428 -2.9223,-1.98007 -1.36723,-0.25508 -2.41269,-0.20524 -4.80487,0.22662 -2.36676,0.4265 -4.06343,0.44632 -3.72226,0.0431 0.28538,-0.33726 4.52711,-1.36233 6.57731,-1.5896 l 0.48636,-0.0548 -0.42807,-0.82222 c -0.2489,-0.47803 -0.69481,-1.75898 -1.06634,-3.06267 -1.52414,-5.34712 -3.35114,-8.99163 -7.00048,-13.9625 -2.18065,-2.97028 -4.21213,-5.32462 -8.189,-9.49 -3.20664,-3.35877 -4.36198,-4.68205 -5.81984,-6.66474 -2.42697,-3.30171 -3.67307,-6.16521 -3.83109,-8.80744 -0.0443,-0.73537 -0.19323,-1.19078 -0.4539,-1.38494 -0.72109,-0.53725 -1.53165,1.05485 -1.95046,3.8287 -0.28567,1.89724 -0.3263,3.74418 -0.12724,5.85103 0.28066,2.97028 0.72715,4.95531 2.15884,9.59609 1.70769,5.53597 2.22407,8.26068 2.2162,11.69448 0,1.2746 -0.36285,4.11431 -0.66286,5.22967 -1.11116,4.13104 -3.1536,8.07358 -5.72863,11.05797 l -0.33941,0.39368 1.68484,0.25268 c 1.763,0.26463 4.13774,0.80176 4.26085,0.96352 0.0385,0.0536 -0.6888,0.0941 -1.6188,0.0903 -0.93005,0 -2.80194,0.028 -4.15995,0.0662 -7.92844,0.23118 -9.10879,0.24388 -12.40561,0.17155 -1.32659,-0.0291 -1.7268,0 -1.92423,0.14764 -0.0993,0.0737 -0.15697,0.13185 -0.18209,0.19504 z m 27.63006,11.92356 c 0.0128,-0.0864 0.31919,-0.60137 0.68075,-1.14613 0.66636,-1.00409 0.79332,-1.08942 1.24418,-0.83353 0.20681,0.11821 0.2338,0.0536 -0.50187,1.21071 -0.61133,0.96264 -0.62864,0.97879 -1.03387,0.95244 -0.29692,-0.0204 -0.4051,-0.075 -0.3889,-0.18297 z m 2.33027,-14.96449 c 0.0222,-0.20954 0.16816,-0.22044 0.45588,-0.14339 0.28037,0.075 0.33696,0.18793 0.57297,1.13885 0.14415,0.58038 0.25432,1.11652 0.24523,1.19183 -0.0187,0.1494 -0.52216,0.23636 -0.66595,0.11442 -0.049,-0.0431 -0.22902,-0.58697 -0.39928,-1.21188 -0.15441,-0.56674 -0.22914,-0.90528 -0.20885,-1.08994 z m -0.65342,15.82716 c 0.021,-0.13849 1.27,-1.76055 1.51388,-1.96445 0.11168,-0.0979 0.30485,-0.14216 0.42615,-0.1055 0.36011,0.10807 0.27366,0.37509 -0.44352,1.35976 -0.67289,0.92435 -0.68233,0.93157 -1.09426,0.87066 -0.22884,-0.0344 -0.40971,-0.10678 -0.40161,-0.16047 z m 2.51668,-16.21186 c 0,-0.0245 0.008,-0.0385 0.0186,-0.0472 0.062,-0.046 0.25263,-0.046 0.42417,3.5e-4 0.27093,0.0738 0.36028,0.22383 0.6832,1.1554 0.2043,0.58942 0.36372,1.13559 0.35428,1.21369 -0.0216,0.16939 -0.28043,0.24301 -0.54086,0.15045 -0.21882,-0.0763 -0.9771,-2.12084 -0.93921,-2.4736 z m -0.64462,16.92532 c 0.0286,-0.20693 1.23905,-1.73835 1.51464,-1.90506 0.10072,-0.0611 0.29109,-0.0789 0.42306,-0.042 0.13231,0.0408 0.24586,0.12584 0.25268,0.18804 0.0175,0.15959 -1.19533,1.70832 -1.44323,1.8439 -0.2359,0.12766 -0.6786,0.0852 -0.74651,-0.0738 -0.006,-0.0151 -0.006,-0.0151 0,-0.0151 z m 2.57409,-17.02966 c -0.006,-0.0151 0,-0.014 0,-0.014 0.10405,-0.0763 0.6223,0.0152 0.7535,0.13354 0.0606,0.056 0.27956,0.54209 0.48677,1.0833 0.20722,0.54086 0.37241,1.01189 0.36728,1.04622 -0.0157,0.10428 -0.32974,0.13984 -0.57881,0.0635 -0.16921,-0.0507 -0.35917,-0.38517 -0.66915,-1.17295 -0.22319,-0.56738 -0.37923,-1.05928 -0.3646,-1.14345 z m 2.09951,0.22342 c -0.006,-0.0151 0,-0.014 0.006,-0.0151 0.12106,-0.14386 0.67994,0.0151 0.82245,0.23508 0.0782,0.11955 0.25729,0.50501 0.3973,0.85445 0.14001,0.34968 0.24458,0.70256 0.2324,0.78399 -0.0373,0.24784 -0.51866,0.22948 -0.70821,-0.0268 -0.23846,-0.32233 -0.78422,-1.66916 -0.74913,-1.83458 z m -2.52157,17.13458 c 0.0151,-0.1294 0.17142,-0.33901 0.56103,-0.79757 0.57146,-0.67283 0.69503,-0.76451 0.97523,-0.72115 0.46619,0.0699 0.40009,0.38535 -0.2289,1.09234 -0.55649,0.62491 -1.01942,0.82647 -1.26575,0.55077 -0.0309,-0.0356 -0.046,-0.0725 -0.0408,-0.12206 z m 8.60809,0.88762 c 0.008,-0.0291 0.0251,-0.0472 0.0449,-0.0472 0.0466,0.0128 0.17947,-0.16356 0.295,-0.37923 0.48321,-0.90033 1.34577,-1.58027 2.7046,-2.13127 0.82274,-0.33376 1.81307,-0.43629 3.23153,-0.33516 0.5028,0.0367 0.85923,0.10422 0.85037,0.16338 -0.008,0.056 -0.21374,0.20984 -0.45197,0.34769 -0.2947,0.16123 -0.60008,0.48928 -0.92504,0.9887 -0.55025,0.84705 -1.26096,1.48182 -1.89555,1.69405 -0.98001,0.32822 -3.7682,0.19637 -3.8519,-0.18181 -0.0117,-0.0495 -0.0105,-0.0916 0,-0.11955 z m 2.56791,-16.40363 c 0.0752,-0.28824 0.63051,-0.26714 1.81943,0.0623 1.97733,0.5496 2.63477,1.14106 3.13005,2.81686 0.19451,0.6582 0.39514,1.0777 0.63202,1.32158 0.19101,0.19661 0.34,0.40453 0.33143,0.46177 -0.0239,0.16023 -2.05649,-0.33015 -2.75467,-0.66292 -1.63751,-0.78369 -3.21031,-2.7394 -3.16712,-3.93869 0,-0.0227 0.006,-0.042 0.009,-0.061 z m 1.36606,1.53462 0.40201,0.42895 c 0.79256,0.84577 2.10848,1.53451 2.49051,1.30357 0.2553,-0.15411 0.26148,-0.31423 0.0321,-0.79593 -0.33336,-0.70028 -0.8502,-0.90301 -2.36542,-0.92726 z m -1.93076,13.80512 c -0.006,0.0332 0.0245,0.0598 0.0773,0.089 0.42533,0.23082 1.44381,0.44748 1.87317,0.39776 0.4304,-0.0495 1.01585,-0.40971 1.19171,-0.73333 0.13552,-0.24889 0.13354,-0.29238 -0.0233,-0.50332 -0.18506,-0.25012 -0.17923,-0.24913 -1.07064,-0.11448 -0.40785,0.0623 -1.0629,0.27722 -1.45612,0.47814 -0.41624,0.21165 -0.58288,0.31371 -0.59221,0.38611 z"
       stop-color="#000000"
       stroke-width="0.19153"
       style="font-variation-settings:normal;fill:#ffffff;-inkscape-stroke:none"
       id="path19" /><text
       transform="scale(0.94678016,1.0562114)"
       x="461.01215"
       y="822.18414"
       font-family="Jost"
       font-size="117.637px"
       font-style="italic"
       font-weight="500"
       stroke-linejoin="round"
       stroke-width="5.73494"
       text-align="center"
       text-anchor="middle"
       style="fill:#ffffff;fill-opacity:1;paint-order:stroke markers fill"
       xml:space="preserve"
       id="text20"><tspan
         x="461.01215"
         y="822.18414"
         stroke-width="5.73494"
         id="tspan20"
         style="fill:#ffffff;fill-opacity:1">Mantarraia</tspan></text></g><g
     id="g25"
     transform="translate(-840.49761)"
     style="fill:#ffffff"
     inkscape:label="Mantarraia_Branca_favicon"><g
       id="g22"
       inkscape:export-filename="Estudos/RaiaAgenda/static/img/RaiaAgenda_favicon.png"
       inkscape:export-xdpi="96"
       inkscape:export-ydpi="96"
       transform="translate(-30.650298,-44.034752)"
       style="fill:#ffffff"><path
         d="m 462.83,434.84 c -78.553,0 -142.34,63.791 -142.34,142.34 0,78.553 63.791,142.34 142.34,142.34 78.553,0 142.34,-63.791 142.34,-142.34 1e-4,-78.553 -63.789,-142.34 -142.34,-142.34 z m 0,10.305 c 72.984,0 132.04,59.055 132.04,132.04 0,72.984 -59.053,132.04 -132.04,132.04 -72.984,0 -132.04,-59.055 -132.04,-132.04 0,-72.984 59.055,-132.04 132.04,-132.04 z"
         fill="#113b79"
         id="path21"
         inkscape:export-filename="Estudos/RaiaAgenda/static/img/RaiaAgenda_favicon.png"
         inkscape:export-xdpi="96"
         inkscape:export-ydpi="96"
         style="fill:#ffffff" /><g
         fill="#113b79"
         id="g21"
         style="fill:#ffffff" /></g><g
       id="g24"
       transform="matrix(0.4765973,0,0,0.4765973,221.9437,121.71982)"
       style="stroke-width:2.09821;fill:#ffffff"><g
         id="g23"
         transform="translate(-7.7426965,-24.649907)"
         style="fill:#ffffff"><text
           x="376.77927"
           y="1052.0872"
           font-family="Jost"
           font-size="177.281px"
           font-style="italic"
           font-weight="500"
           stroke-linejoin="round"
           stroke-width="12.0332"
           style="fill:#ffffff;paint-order:stroke markers fill"
           xml:space="preserve"
           id="text22"><tspan
             x="376.77927"
             y="1052.0872"
             fill="#113b79"
             stroke-width="12.0332"
             id="tspan22"
             style="fill:#ffffff">S</tspan></text><path
           d="m 433.60354,904.89904 c -0.0993,0.25771 -0.0637,0.535 0.0733,0.92445 0.18883,0.53427 0.64813,1.1399 1.01542,1.35316 0.37117,0.20545 5.83703,1.88481 12.14831,3.72289 13.70462,3.99048 20.6749,6.19414 38.29159,12.10913 7.30568,2.45428 16.23662,5.35636 19.84656,6.45043 5.94972,1.80405 7.7096,2.56244 7.057,3.04521 -0.48751,0.36104 -11.44451,-0.51511 -17.93461,-1.42918 -3.7604,-0.50498 -6.83847,-0.91574 -6.84913,-0.84463 0,0.071 0.66184,1.7972 1.49227,3.84708 7.17532,17.69749 9.7333,37.67988 7.07633,55.27387 -2.62314,17.39815 -8.9642,31.37825 -25.09782,55.36595 -13.12099,19.5107 -18.51208,29.5478 -22.73166,42.3281 -5.18161,15.6946 -5.79311,31.9546 -1.22751,32.6395 1.40252,0.2055 2.38742,-1.1042 4.49051,-5.986 6.35712,-14.7587 20.23321,-27.2874 47.9188,-43.2658 31.81751,-18.3626 38.00578,-22.2071 49.93115,-31.0122 21.08116,-15.5318 34.90694,-30.3696 46.67407,-49.95475 0.83186,-1.38574 2.8896,-4.00844 4.57151,-5.82994 1.68191,-1.82154 2.98265,-3.39057 2.89029,-3.4881 -0.0899,-0.0919 -1.75679,-0.85739 -3.69925,-1.68855 -7.10137,-3.04124 -20.27714,-11.13793 -21.5382,-13.23672 -0.45914,-0.76411 -0.21962,-0.76621 3.00768,0 2.55065,0.607 5.53895,1.87419 10.9662,4.65936 8.86598,4.54887 12.86566,6.07724 17.8562,6.82173 7.03852,1.05484 9.49236,0.13008 18.13722,-6.8073 3.3483,-2.6853 8.05277,-6.20881 10.45251,-7.83241 2.3997,-1.62479 6.47451,-4.36247 9.05019,-6.09163 4.96286,-3.32938 9.85231,-8.23276 11.65068,-11.67737 0.54772,-1.05036 1.23719,-3.44751 1.53076,-5.32829 0.49363,-3.18743 0.4365,-3.72171 -0.91265,-7.9127 -1.33116,-4.13667 -1.84371,-5.0101 -6.42941,-10.95958 -6.53614,-8.47885 -13.91058,-18.39352 -17.29924,-23.26003 -3.75003,-5.38404 -6.05645,-6.94645 -11.84149,-8.02346 -5.54017,-1.03361 -9.7765,-0.83166 -19.46989,0.91829 -9.59038,1.72823 -16.46547,1.80854 -15.08302,0.17464 1.1564,-1.36661 18.34437,-5.52031 26.65201,-6.44123 l 1.97079,-0.22207 -1.73459,-3.33172 c -1.00856,-1.93704 -2.81544,-7.12759 -4.32093,-12.41029 -6.17599,-21.66713 -13.57919,-36.4351 -28.36674,-56.57763 -8.83624,-12.03592 -17.06803,-21.57597 -33.18275,-38.45456 -12.99368,-13.61012 -17.67524,-18.9722 -23.58266,-27.00628 -9.83436,-13.37891 -14.8837,-24.98213 -15.52401,-35.68876 -0.17951,-2.97979 -0.78299,-4.82517 -1.83926,-5.61193 -2.92194,-2.17699 -6.20642,4.27438 -7.90348,15.51433 -1.15756,7.68783 -1.3222,15.17184 -0.51559,23.70904 1.13726,12.03591 2.94649,20.07947 8.74786,38.88445 6.91975,22.43237 9.01219,33.47321 8.9803,47.38735 0,5.16483 -1.47031,16.67165 -2.68598,21.19122 -4.50255,16.73944 -12.77875,32.71506 -23.21307,44.80816 l -1.37532,1.59523 6.82715,1.02389 c 7.14389,1.07232 16.7666,3.24883 17.26545,3.9043 0.15601,0.21718 -2.79109,0.3813 -6.55955,0.36589 -3.76867,0 -11.35379,0.11352 -16.85659,0.26826 -32.12695,0.93677 -36.90986,0.98822 -50.26895,0.69514 -5.37549,-0.11792 -6.99719,0 -7.7972,0.59825 -0.40237,0.29864 -0.63606,0.53427 -0.73784,0.79032 z m 111.96015,48.31563 c 0.0519,-0.35012 1.29338,-2.43683 2.75847,-4.64426 2.70016,-4.06868 3.21462,-4.41445 5.04155,-3.37756 0.83803,0.479 0.94739,0.2172 -2.03363,4.90593 -2.47717,3.90074 -2.54732,3.96618 -4.18935,3.85941 -1.20316,-0.0826 -1.64152,-0.30392 -1.57588,-0.74143 z m 9.44251,-60.63782 c 0.0899,-0.84908 0.6814,-0.89325 1.84728,-0.58103 1.13609,0.30391 1.36539,0.76151 2.32174,4.61474 0.58411,2.35177 1.03053,4.52427 0.9937,4.82944 -0.0758,0.60538 -2.11585,0.95775 -2.69851,0.46364 -0.19855,-0.17465 -0.92801,-2.37847 -1.61792,-4.91068 -0.6257,-2.2965 -0.92851,-3.6683 -0.84629,-4.41656 z m -2.64773,64.13345 c 0.0851,-0.56118 5.14618,-7.13395 6.13442,-7.96018 0.45253,-0.3967 1.23528,-0.57604 1.7268,-0.4275 1.4592,0.43792 1.1089,1.51991 -1.7972,5.5099 -2.72662,3.74558 -2.76487,3.77483 -4.43406,3.52803 -0.92729,-0.1394 -1.66019,-0.43269 -1.62736,-0.65025 z m 10.19788,-65.6923 c 0,-0.0993 0.0324,-0.15601 0.0753,-0.19126 0.25123,-0.18639 1.02368,-0.18639 1.71878,10e-4 1.09784,0.29905 1.4599,0.90698 2.76841,4.68181 0.82784,2.38841 1.47383,4.60154 1.43558,4.91801 -0.0876,0.68639 -1.13633,0.98471 -2.19164,0.60964 -0.88668,-0.30917 -3.95931,-8.59388 -3.80578,-10.0233 z m -2.61209,68.58332 c 0.11587,-0.83851 5.02078,-7.044 6.13751,-7.71952 0.40812,-0.24758 1.17952,-0.31971 1.71428,-0.17019 0.53613,0.16532 0.99625,0.50992 1.02389,0.76196 0.071,0.64668 -4.84362,6.92231 -5.84814,7.47169 -0.95589,0.51729 -2.74976,0.34524 -3.02494,-0.29904 -0.0243,-0.0612 -0.0243,-0.0612 0,-0.0612 z m 10.43052,-69.00612 c -0.0243,-0.0612 0,-0.0567 0,-0.0567 0.42161,-0.30917 2.52162,0.0616 3.05326,0.54113 0.24556,0.22691 1.13281,2.19661 1.97245,4.38965 0.83967,2.19163 1.50904,4.10029 1.48826,4.2394 -0.0636,0.42256 -1.33614,0.56665 -2.3454,0.25731 -0.68566,-0.20543 -1.4554,-1.56075 -2.71148,-4.75293 -0.90439,-2.29909 -1.53668,-4.29231 -1.47739,-4.63338 z m 8.50744,0.90533 c -0.0243,-0.0612 0,-0.0567 0.0243,-0.0612 0.49056,-0.58294 2.7552,0.0612 3.33266,0.95257 0.31689,0.48443 1.04257,2.04636 1.60991,3.46233 0.56733,1.41694 0.99106,2.84685 0.94171,3.17681 -0.15114,1.00429 -2.10166,0.92988 -2.86975,-0.10856 -0.96626,-1.30612 -3.17775,-6.76364 -3.03555,-7.43393 z m -10.21769,69.43126 c 0.0612,-0.52434 0.69462,-1.37371 2.27336,-3.23185 2.31563,-2.72637 2.81635,-3.09788 3.95175,-2.92217 1.88905,0.28324 1.62121,1.56148 -0.92753,4.42628 -2.25496,2.53221 -4.13081,3.34895 -5.12897,2.23178 -0.1252,-0.14426 -0.18639,-0.29377 -0.16532,-0.49459 z m 34.88097,3.59674 c 0.0324,-0.11791 0.10172,-0.19126 0.18194,-0.19126 0.18882,0.0519 0.72723,-0.66276 1.19537,-1.53668 1.95802,-3.64824 5.45321,-6.40344 10.95935,-8.63615 3.33384,-1.35244 7.34676,-1.7679 13.09452,-1.35811 2.03741,0.14872 3.4817,0.42232 3.4458,0.66204 -0.0324,0.22691 -0.86609,0.85029 -1.83143,1.40887 -1.19417,0.65332 -2.4316,1.98262 -3.74837,4.00633 -2.22967,3.43234 -5.10956,6.0045 -7.68099,6.86448 -3.9711,1.32999 -15.26917,0.79571 -15.60833,-0.73672 -0.0474,-0.20058 -0.0426,-0.37116 0,-0.48442 z m 10.40546,-66.46938 c 0.30472,-1.16798 2.55489,-1.08248 7.37253,0.25245 8.01237,2.22704 10.67639,4.62371 12.68333,11.41424 0.78817,2.66709 1.60114,4.36696 2.56102,5.35518 0.77399,0.7967 1.37771,1.63922 1.34299,1.87116 -0.0969,0.64927 -8.33314,-1.33782 -11.16224,-2.68623 -6.63537,-3.1756 -13.00854,-11.10036 -12.83353,-15.96002 0,-0.0919 0.0243,-0.17019 0.0364,-0.24718 z m 5.53543,6.21846 1.62899,1.73816 c 3.21154,3.42714 8.5438,6.218 10.09184,5.28221 1.03449,-0.62447 1.05953,-1.2733 0.13006,-3.2252 -1.35081,-2.83762 -3.44511,-3.6591 -9.58495,-3.75736 z m -7.82366,55.93992 c -0.0243,0.13453 0.0992,0.24231 0.31323,0.36064 1.72349,0.9353 5.85049,1.81323 7.59029,1.61177 1.74404,-0.20059 4.11635,-1.6602 4.82896,-2.97155 0.54913,-1.00853 0.54112,-1.18475 -0.0944,-2.0395 -0.74989,-1.01352 -0.72627,-1.00951 -4.33836,-0.46389 -1.65265,0.25244 -4.30699,1.12333 -5.90036,1.93747 -1.68666,0.85764 -2.36189,1.27119 -2.39971,1.56456 z"
           stop-color="#000000"
           stroke-width="0.401869"
           style="font-variation-settings:normal;fill:#ffffff;-inkscape-stroke:none"
           id="path22" /><text
           transform="scale(0.94678017,1.0562114)"
           x="404.27792"
           y="835.50568"
           font-family="Jost"
           font-size="289.618px"
           font-style="italic"
           font-weight="500"
           stroke-linejoin="round"
           stroke-width="12.0331"
           text-align="center"
           text-anchor="middle"
           style="fill:#ffffff;fill-opacity:1;paint-order:stroke markers fill"
           xml:space="preserve"
           id="text23"><tspan
             x="404.27792"
             y="835.50568"
             stroke-width="12.0331"
             id="tspan23"
             style="fill:#ffffff;fill-opacity:1">M</tspan></text></g></g></g></svg>
